<!-- <svg width="142" height="32" viewBox="0 0 142 32" fill="none" xmlns="http://www.w3.org/2000/svg">
<g clip-path="url(#clip0_2686_137595)">
<path d="M135.53 3.27833C135.53 5.59927 134.647 6.55666 133.206 6.55666C131.765 6.55666 130.883 5.59927 130.883 3.27833C130.883 0.957389 131.765 0 133.206 0C134.647 0 135.5 0.957389 135.53 3.27833ZM131.677 3.27833C131.677 3.80054 131.736 4.26473 131.824 4.61287L134.353 1.27652C134.089 0.81233 133.706 0.667271 133.206 0.667271C132.265 0.667271 131.677 1.27652 131.677 3.27833ZM134.706 3.27833C134.706 2.66908 134.648 2.2049 134.559 1.82774L132 5.1641C132.265 5.6573 132.677 5.86038 133.177 5.86038C134.089 5.88939 134.706 5.25113 134.706 3.27833Z" fill="white"/>
<path d="M135.353 12.5622C135.353 13.8677 134.5 14.7671 133.236 14.7671C131.706 14.7671 130.941 13.6937 130.941 11.6338C130.941 9.42894 131.794 8.21045 133.324 8.21045C134.383 8.21045 135.088 8.76167 135.265 9.77709L134.441 9.95116C134.294 9.22586 133.912 8.87772 133.324 8.87772C132.324 8.87772 131.794 9.71906 131.765 11.3437C132.059 10.7635 132.647 10.4444 133.383 10.4444C134.588 10.4153 135.353 11.2567 135.353 12.5622ZM134.53 12.5622C134.53 11.6629 134.03 11.0826 133.236 11.0826C132.53 11.0826 132.03 11.5178 131.794 12.3591C131.883 13.4036 132.441 14.0708 133.265 14.0708C134.03 14.0708 134.53 13.4906 134.53 12.5622Z" fill="white"/>
<path d="M141.03 7.92017C140.501 7.92017 140.06 8.35534 140.06 8.87756V18.7706C140.06 18.8866 139.971 19.699 139.53 20.5113C138.942 21.6137 138.001 22.1359 136.648 22.1359H133.471C134.236 21.1495 134.648 19.9891 134.795 19.2058C134.883 18.6835 134.53 18.1903 134.001 18.1033C133.471 18.0163 132.971 18.3644 132.883 18.8866C132.883 18.8866 132.707 19.786 132.207 20.6273C131.589 21.6427 130.795 22.1359 129.766 22.1359C129.236 22.1359 128.795 22.5711 128.795 23.0933C128.795 23.6155 129.236 24.0507 129.766 24.0507C132.266 24.0507 132.854 27.155 132.883 27.271C132.971 27.7352 133.383 28.0543 133.854 28.0543C133.913 28.0543 133.971 28.0543 134.03 28.0543C134.56 27.9673 134.913 27.4741 134.824 26.9519C134.677 26.1686 134.295 25.0661 133.589 24.1087H136.677C139.295 24.1087 140.648 22.6582 141.295 21.4397C141.942 20.2212 142.03 19.0317 142.03 18.8866C142.03 18.8576 142.03 18.8576 142.03 18.8286V8.90657C142.001 8.35534 141.56 7.92017 141.03 7.92017Z" fill="white"/>
<path d="M125.705 5.77335C126.234 5.39619 127.058 4.72892 127.882 3.97461C128.676 3.1913 128.97 2.66908 128.97 1.91478C128.97 1.13146 128.529 0.696283 127.793 0.696283C127.058 0.696283 126.587 1.13146 126.587 1.82774C126.587 2.00181 126.617 2.17588 126.646 2.40798L125.823 2.32094C125.764 2.14687 125.764 1.9728 125.764 1.82774C125.764 0.725295 126.529 0 127.823 0C129.058 0 129.793 0.667271 129.793 1.91478C129.793 2.81414 129.352 3.56845 128.352 4.46781C127.852 4.932 127.411 5.28015 126.793 5.71532H129.882V6.44062H125.705V5.77335V5.77335Z" fill="white"/>
<path d="M125.705 13.9257C126.234 13.5485 127.058 12.8813 127.882 12.127C128.676 11.3436 128.97 10.8214 128.97 10.0671C128.97 9.2838 128.529 8.84863 127.793 8.84863C127.058 8.84863 126.587 9.2838 126.587 9.98009C126.587 10.1542 126.617 10.3282 126.646 10.5603L125.823 10.4733C125.764 10.2992 125.764 10.1251 125.764 9.98009C125.764 8.87764 126.529 8.15234 127.823 8.15234C129.058 8.15234 129.793 8.81961 129.793 10.0671C129.793 10.9665 129.352 11.7208 128.352 12.6202C127.852 13.0843 127.411 13.4325 126.793 13.8677H129.882V14.593H125.705V13.9257V13.9257Z" fill="white"/>
<path d="M78.7937 19.3219V13.5196C78.7937 13.1424 79.0878 12.8523 79.4701 12.8523C79.8525 12.8523 80.1466 13.1424 80.1466 13.5196V23.9348C80.1466 26.7199 78.4113 28.0835 75.9701 28.0835C73.2348 28.0835 71.6172 26.4588 71.6172 23.0354C71.6172 19.612 73.1466 17.9874 75.8819 17.9874C77.2642 17.9584 78.2937 18.6547 78.7937 19.3219ZM78.7937 21.0336C78.7937 21.0336 77.9995 19.1769 75.9701 19.1769C74.0289 19.1769 72.9701 20.4244 72.9701 23.0064C72.9701 25.6175 73.9995 26.836 75.9701 26.836C77.6172 26.836 78.7937 25.9076 78.7937 23.9058V21.0336Z" fill="white"/>
<path d="M82.7656 15.3181C82.7656 14.7089 83.0597 14.4768 83.5598 14.4768C84.0598 14.4768 84.3539 14.7089 84.3539 15.3181C84.3539 15.8113 84.0598 16.1015 83.5598 16.1015C83.0597 16.1015 82.7656 15.8113 82.7656 15.3181ZM84.2656 27.271C84.2656 27.6482 83.9715 27.9383 83.5892 27.9383C83.2068 27.9383 82.9127 27.6482 82.9127 27.271V18.7705C82.9127 18.3934 83.2068 18.1033 83.5892 18.1033C83.9715 18.1033 84.2656 18.3934 84.2656 18.7705V27.271Z" fill="white"/>
<path d="M93.6769 27.9673V26.7778C93.1769 27.4161 92.1769 28.0544 90.7946 28.0544C88.0299 28.0544 86.3828 26.4587 86.3828 23.0063C86.3828 19.5539 88.0299 17.9583 90.7946 17.9583C93.2063 17.9583 95.0593 19.3508 95.0593 22.1069V27.9673C95.0593 30.8105 93.0887 32 90.7063 32C89.0593 32 87.8534 31.3907 87.1475 30.5494C87.0887 30.4623 87.0299 30.3463 87.0299 30.1722C87.0299 29.8241 87.324 29.534 87.6769 29.534C87.8534 29.534 88.0005 29.563 88.1769 29.766C88.6769 30.2592 89.3534 30.7524 90.6769 30.7524C92.4416 30.7524 93.6769 29.8821 93.6769 27.9673ZM93.6769 22.1069C93.6769 20.1051 92.4122 19.1767 90.7946 19.1767C88.824 19.1767 87.7652 20.3952 87.7652 23.0063C87.7652 25.5884 88.8534 26.8359 90.7946 26.8359C92.7946 26.8359 93.6769 25.1242 93.6769 25.1242V22.1069Z" fill="white"/>
<path d="M97.4121 15.3181C97.4121 14.7089 97.7062 14.4768 98.2062 14.4768C98.7062 14.4768 99.0003 14.7089 99.0003 15.3181C99.0003 15.8113 98.7062 16.1015 98.2062 16.1015C97.7062 16.1015 97.4121 15.8113 97.4121 15.3181ZM98.9121 27.271C98.9121 27.6482 98.618 27.9383 98.2356 27.9383C97.8533 27.9383 97.5592 27.6482 97.5592 27.271V18.7705C97.5592 18.3934 97.8533 18.1033 98.2356 18.1033C98.618 18.1033 98.9121 18.3934 98.9121 18.7705V27.271Z" fill="white"/>
<path d="M102.205 16.0435C102.205 15.6954 102.528 15.3762 102.881 15.3762C103.264 15.3762 103.558 15.6954 103.558 16.0435V18.2484H104.94C105.293 18.2484 105.587 18.5095 105.587 18.8866C105.587 19.2348 105.323 19.5249 104.94 19.5249H103.558V25.3273C103.558 26.2266 104.058 26.7198 104.793 26.7198C105.146 26.7198 105.44 26.9809 105.44 27.3581C105.44 27.7062 105.146 27.9963 104.793 27.9963C103.117 27.9963 102.205 26.8939 102.205 25.3563V19.5539H101.381C101.028 19.5539 100.734 19.2928 100.734 18.9157C100.734 18.5675 100.999 18.2774 101.381 18.2774H102.205V16.0435Z" fill="white"/>
<path d="M108.706 20.2792C108.5 20.5113 108.353 20.5693 108.147 20.5693C107.794 20.5693 107.529 20.3082 107.529 19.9601C107.529 19.815 107.559 19.699 107.647 19.6119C108.235 18.6835 109.382 17.9583 111.176 17.9583C113.647 17.9583 115 19.3798 115 21.5267V27.3C115 27.6482 114.706 27.9383 114.353 27.9383C114 27.9383 113.706 27.6482 113.706 27.3V26.5457C113.176 27.5321 111.941 28.0544 110.676 28.0544C108.412 28.0544 107 26.9809 107 25.0661C107 23.2094 108.412 22.1069 110.735 22.1069H113.735V21.5267C113.735 20.1051 112.765 19.2058 111.235 19.2058C110.029 19.2348 109.353 19.5539 108.706 20.2792ZM113.676 24.1668V23.2964H110.676C109.294 23.2964 108.324 23.8767 108.324 25.0952C108.324 26.1976 109.088 26.8939 110.735 26.8939C112.235 26.8359 113.676 25.9365 113.676 24.1668Z" fill="white"/>
<path d="M118.912 13.5196V25.5014C118.912 26.3428 119.176 26.6909 119.764 26.6909C120.117 26.6909 120.412 26.952 120.412 27.3292C120.412 27.6773 120.117 27.9674 119.764 27.9674C118.353 27.9674 117.559 27.1261 117.559 25.5014V13.5196C117.559 13.1714 117.882 12.8523 118.235 12.8523C118.617 12.8523 118.912 13.1424 118.912 13.5196Z" fill="white"/>
<path d="M65.8814 30.5493C65.5285 30.5493 65.2344 30.2592 65.2344 29.9111V16.3336C65.2344 15.9854 65.5285 15.6953 65.8814 15.6953C66.2344 15.6953 66.5285 15.9854 66.5285 16.3336V29.9111C66.4991 30.2592 66.2344 30.5493 65.8814 30.5493Z" fill="white"/>
<path d="M9.88235 27.0099C9.85294 27.3581 9.55882 27.5902 9.23529 27.5902H0.647059C0.264706 27.5612 0 27.3 0 26.9229C0 26.5748 0.264706 26.2846 0.647059 26.2846H1.41176V14.7379H0.647059C0.264706 14.7379 0 14.4768 0 14.0997C0 13.7515 0.264706 13.4614 0.647059 13.4614H8.97059C9.35294 13.4614 9.61765 13.7225 9.61765 14.0997V15.6953C9.61765 16.0725 9.35294 16.3336 8.97059 16.3336C8.61765 16.3336 8.32353 16.0725 8.32353 15.6953V14.7379H2.88235V19.786H7.55882C7.91177 19.786 8.20588 20.0761 8.20588 20.4243C8.20588 20.7724 7.91177 21.0625 7.55882 21.0625H2.88235V26.2266H8.55882V25.2692C8.55882 24.8921 8.85294 24.631 9.20588 24.631C9.58824 24.631 9.85294 24.8921 9.85294 25.2692V27.0099H9.88235Z" fill="#FFCD00"/>
<path d="M12.3528 20.3082C12.3528 22.5131 17.9411 21.7007 17.9411 25.0661C17.9411 26.9809 16.3528 27.8512 14.3234 27.8512C12.5881 27.8512 11.2352 27.0389 10.6764 26.3426C10.5587 26.1976 10.5293 26.0815 10.5293 25.9365C10.5293 25.5883 10.794 25.3272 11.1469 25.3272C11.2646 25.3272 11.4411 25.3562 11.6175 25.5303C12.2646 26.1685 13.1175 26.5457 14.3234 26.5457C15.5293 26.5457 16.5881 26.1395 16.5881 25.0661C16.5881 22.8902 10.9999 23.7606 10.9999 20.3082C10.9999 18.5675 12.4411 17.7551 14.2646 17.7551C15.7058 17.7551 16.8528 18.2483 17.4999 19.0897C17.5587 19.1767 17.6469 19.2928 17.6469 19.4958C17.6469 19.844 17.3822 20.1051 17.0293 20.1051C16.9117 20.1051 16.7646 20.0761 16.5881 19.902C15.9999 19.3508 15.3822 19.0316 14.2646 19.0316C13.294 19.0316 12.3528 19.3508 12.3528 20.3082Z" fill="#FFCD00"/>
<path d="M19.0885 31.797C18.7355 31.797 18.4414 31.5359 18.4414 31.1588C18.4414 30.8106 18.7061 30.5205 19.0885 30.5205H19.9708V19.293H19.0885C18.7355 19.293 18.4414 19.0318 18.4414 18.6547C18.4414 18.3066 18.7061 18.0164 19.0885 18.0164H20.7061C21.0591 18.0164 21.3532 18.2775 21.3532 18.6547V19.2059C21.7649 18.4806 22.8238 17.7263 24.2355 17.7263C27.0002 17.7263 28.6767 19.322 28.6767 22.7744C28.6767 26.2268 27.0002 27.8514 24.2355 27.8514C22.8238 27.8514 21.7943 27.0971 21.3532 26.3718V30.5205H22.4708C22.8238 30.5205 23.1179 30.7816 23.1179 31.1588C23.1179 31.5069 22.8532 31.797 22.4708 31.797H19.0885V31.797ZM24.2355 26.6329C26.2061 26.6329 27.2944 25.4144 27.2944 22.8034C27.2944 20.1923 26.1473 18.9738 24.1767 18.9738C22.5885 18.9738 21.2943 20.0763 21.2943 22.8034C21.2943 25.5015 22.5885 26.6329 24.2355 26.6329Z" fill="#FFCD00"/>
<path d="M36.7942 27.5613C36.4707 27.5613 36.2942 27.2712 36.2942 27.0101V26.3138C35.7648 27.3002 34.4119 27.8224 33.1472 27.8224C30.8825 27.8224 29.4707 26.749 29.4707 24.8342C29.4707 22.9775 30.8825 21.875 33.206 21.875H36.206V21.2948C36.206 19.8732 35.2354 18.9738 33.706 18.9738C32.5884 18.9738 31.8825 19.322 31.2354 20.0473C31.0295 20.2794 30.8825 20.3374 30.6766 20.3374C30.3236 20.3374 30.0589 20.0763 30.0589 19.7281C30.0589 19.5831 30.0884 19.467 30.1766 19.38C30.7648 18.4516 31.9119 17.7263 33.706 17.7263C36.1766 17.7263 37.5295 19.1479 37.5295 21.2948V26.2848H38.4119C38.7648 26.2848 39.0589 26.5459 39.0589 26.9231C39.0589 27.2712 38.7942 27.5613 38.4119 27.5613H36.7942ZM33.2942 26.6329C34.7942 26.6329 36.206 25.7336 36.206 23.9348V23.0645H33.206C31.8236 23.0645 30.8531 23.6447 30.8531 24.8632C30.8531 25.9367 31.6178 26.6329 33.2942 26.6329Z" fill="#FFCD00"/>
<path d="M39.9127 27.5612C39.5597 27.5612 39.2656 27.3001 39.2656 26.9229C39.2656 26.5748 39.5303 26.2846 39.9127 26.2846H40.795V19.2928H39.9127C39.5597 19.2928 39.2656 19.0317 39.2656 18.6545C39.2656 18.3064 39.5303 18.0163 39.9127 18.0163H41.5303C41.8833 18.0163 42.1774 18.2774 42.1774 18.6545V19.2058C42.5892 18.4225 43.6186 17.7262 45.0009 17.7262C48.2656 17.7262 48.9127 19.67 48.9127 21.4397V26.2846H49.795C50.148 26.2846 50.4421 26.5458 50.4421 26.9229C50.4421 27.271 50.1774 27.5612 49.795 27.5612H46.648C46.295 27.5612 46.0009 27.3001 46.0009 26.9229C46.0009 26.5748 46.2656 26.2846 46.648 26.2846H47.5303V21.7298C47.5303 20.0761 47.0303 18.9447 44.9715 18.9447C43.0009 18.9447 42.148 20.1922 42.148 21.8749V26.3137H43.0303C43.3833 26.3137 43.6774 26.5748 43.6774 26.9519C43.6774 27.3001 43.4127 27.5902 43.0303 27.5902H39.9127V27.5612ZM46.4127 15.4633C46.8245 15.4633 47.0597 15.2892 47.3539 14.912C47.4127 14.825 47.5303 14.6799 47.7656 14.6799C48.0303 14.6799 48.2656 14.912 48.2656 15.1731C48.2656 15.7244 47.4421 16.4497 46.4421 16.4497C45.4421 16.4497 44.9127 15.6663 44.0597 15.6663C43.648 15.6663 43.4127 15.8404 43.1186 16.2466C43.0597 16.3046 42.9421 16.4497 42.7068 16.4497C42.4421 16.4497 42.2068 16.2466 42.2068 15.9565C42.2068 15.3762 43.0892 14.6799 44.0303 14.6799C45.0303 14.7089 45.5597 15.4633 46.4127 15.4633Z" fill="#FFCD00"/>
<path d="M57.9993 27.5613C57.6758 27.5613 57.4993 27.2712 57.4993 27.0101V26.3138C56.9699 27.3002 55.617 27.8224 54.3523 27.8224C52.0875 27.8224 50.6758 26.749 50.6758 24.8342C50.6758 22.9775 52.0875 21.875 54.4111 21.875H57.4111V21.2948C57.4111 19.8732 56.4405 18.9738 54.9111 18.9738C53.7934 18.9738 53.0875 19.322 52.4405 20.0473C52.2346 20.2794 52.0875 20.3374 51.8817 20.3374C51.5287 20.3374 51.264 20.0763 51.264 19.7281C51.264 19.5831 51.2934 19.467 51.3817 19.38C51.9699 18.4516 53.117 17.7263 54.9111 17.7263C57.3817 17.7263 58.7346 19.1479 58.7346 21.2948V26.2848H59.617C59.9699 26.2848 60.264 26.5459 60.264 26.9231C60.264 27.2712 59.9993 27.5613 59.617 27.5613H57.9993ZM54.4993 26.6329C55.9993 26.6329 57.4111 25.7336 57.4111 23.9348V23.0645H54.4111C53.0287 23.0645 52.0581 23.6447 52.0581 24.8632C52.0581 25.9367 52.8228 26.6329 54.4993 26.6329Z" fill="#FFCD00"/>
</g>
<defs>
<clipPath id="clip0_2686_137595">
<rect width="142" height="32" fill="white"/>
</clipPath>
</defs>
</svg> -->
<svg width="142" height="32" viewBox="0 0 142 32" fill="none" xmlns="http://www.w3.org/2000/svg">
  <defs>
    <style>
      .cls-1 {
        fill: #fff;
      }

      .cls-2 {
        fill: #ffcd00;
      }

      .cls-3 {
        fill: #cd132d;
      }
    </style>
  </defs>
<g clip-path="url(#clip0_2686_137595)">
<path class="cls-1" d="M135.53 3.27833C135.53 5.59927 134.647 6.55666 133.206 6.55666C131.765 6.55666 130.883 5.59927 130.883 3.27833C130.883 0.957389 131.765 0 133.206 0C134.647 0 135.5 0.957389 135.53 3.27833ZM131.677 3.27833C131.677 3.80054 131.736 4.26473 131.824 4.61287L134.353 1.27652C134.089 0.81233 133.706 0.667271 133.206 0.667271C132.265 0.667271 131.677 1.27652 131.677 3.27833ZM134.706 3.27833C134.706 2.66908 134.648 2.2049 134.559 1.82774L132 5.1641C132.265 5.6573 132.677 5.86038 133.177 5.86038C134.089 5.88939 134.706 5.25113 134.706 3.27833Z" fill="white"/>
<path class="cls-1" d="M135.353 12.5622C135.353 13.8677 134.5 14.7671 133.236 14.7671C131.706 14.7671 130.941 13.6937 130.941 11.6338C130.941 9.42894 131.794 8.21045 133.324 8.21045C134.383 8.21045 135.088 8.76167 135.265 9.77709L134.441 9.95116C134.294 9.22586 133.912 8.87772 133.324 8.87772C132.324 8.87772 131.794 9.71906 131.765 11.3437C132.059 10.7635 132.647 10.4444 133.383 10.4444C134.588 10.4153 135.353 11.2567 135.353 12.5622ZM134.53 12.5622C134.53 11.6629 134.03 11.0826 133.236 11.0826C132.53 11.0826 132.03 11.5178 131.794 12.3591C131.883 13.4036 132.441 14.0708 133.265 14.0708C134.03 14.0708 134.53 13.4906 134.53 12.5622Z" fill="white"/>
<path class="cls-3" d="M141.03 7.92017C140.501 7.92017 140.06 8.35534 140.06 8.87756V18.7706C140.06 18.8866 139.971 19.699 139.53 20.5113C138.942 21.6137 138.001 22.1359 136.648 22.1359H133.471C134.236 21.1495 134.648 19.9891 134.795 19.2058C134.883 18.6835 134.53 18.1903 134.001 18.1033C133.471 18.0163 132.971 18.3644 132.883 18.8866C132.883 18.8866 132.707 19.786 132.207 20.6273C131.589 21.6427 130.795 22.1359 129.766 22.1359C129.236 22.1359 128.795 22.5711 128.795 23.0933C128.795 23.6155 129.236 24.0507 129.766 24.0507C132.266 24.0507 132.854 27.155 132.883 27.271C132.971 27.7352 133.383 28.0543 133.854 28.0543C133.913 28.0543 133.971 28.0543 134.03 28.0543C134.56 27.9673 134.913 27.4741 134.824 26.9519C134.677 26.1686 134.295 25.0661 133.589 24.1087H136.677C139.295 24.1087 140.648 22.6582 141.295 21.4397C141.942 20.2212 142.03 19.0317 142.03 18.8866C142.03 18.8576 142.03 18.8576 142.03 18.8286V8.90657C142.001 8.35534 141.56 7.92017 141.03 7.92017Z" fill="white"/>
<path class="cls-1" d="M125.705 5.77335C126.234 5.39619 127.058 4.72892 127.882 3.97461C128.676 3.1913 128.97 2.66908 128.97 1.91478C128.97 1.13146 128.529 0.696283 127.793 0.696283C127.058 0.696283 126.587 1.13146 126.587 1.82774C126.587 2.00181 126.617 2.17588 126.646 2.40798L125.823 2.32094C125.764 2.14687 125.764 1.9728 125.764 1.82774C125.764 0.725295 126.529 0 127.823 0C129.058 0 129.793 0.667271 129.793 1.91478C129.793 2.81414 129.352 3.56845 128.352 4.46781C127.852 4.932 127.411 5.28015 126.793 5.71532H129.882V6.44062H125.705V5.77335V5.77335Z" fill="white"/>
<path class="cls-1" d="M125.705 13.9257C126.234 13.5485 127.058 12.8813 127.882 12.127C128.676 11.3436 128.97 10.8214 128.97 10.0671C128.97 9.2838 128.529 8.84863 127.793 8.84863C127.058 8.84863 126.587 9.2838 126.587 9.98009C126.587 10.1542 126.617 10.3282 126.646 10.5603L125.823 10.4733C125.764 10.2992 125.764 10.1251 125.764 9.98009C125.764 8.87764 126.529 8.15234 127.823 8.15234C129.058 8.15234 129.793 8.81961 129.793 10.0671C129.793 10.9665 129.352 11.7208 128.352 12.6202C127.852 13.0843 127.411 13.4325 126.793 13.8677H129.882V14.593H125.705V13.9257V13.9257Z" fill="white"/>
<path class="cls-1" d="M78.7937 19.3219V13.5196C78.7937 13.1424 79.0878 12.8523 79.4701 12.8523C79.8525 12.8523 80.1466 13.1424 80.1466 13.5196V23.9348C80.1466 26.7199 78.4113 28.0835 75.9701 28.0835C73.2348 28.0835 71.6172 26.4588 71.6172 23.0354C71.6172 19.612 73.1466 17.9874 75.8819 17.9874C77.2642 17.9584 78.2937 18.6547 78.7937 19.3219ZM78.7937 21.0336C78.7937 21.0336 77.9995 19.1769 75.9701 19.1769C74.0289 19.1769 72.9701 20.4244 72.9701 23.0064C72.9701 25.6175 73.9995 26.836 75.9701 26.836C77.6172 26.836 78.7937 25.9076 78.7937 23.9058V21.0336Z" fill="white"/>
<path class="cls-1" d="M82.7656 15.3181C82.7656 14.7089 83.0597 14.4768 83.5598 14.4768C84.0598 14.4768 84.3539 14.7089 84.3539 15.3181C84.3539 15.8113 84.0598 16.1015 83.5598 16.1015C83.0597 16.1015 82.7656 15.8113 82.7656 15.3181ZM84.2656 27.271C84.2656 27.6482 83.9715 27.9383 83.5892 27.9383C83.2068 27.9383 82.9127 27.6482 82.9127 27.271V18.7705C82.9127 18.3934 83.2068 18.1033 83.5892 18.1033C83.9715 18.1033 84.2656 18.3934 84.2656 18.7705V27.271Z" fill="white"/>
<path class="cls-1" d="M93.6769 27.9673V26.7778C93.1769 27.4161 92.1769 28.0544 90.7946 28.0544C88.0299 28.0544 86.3828 26.4587 86.3828 23.0063C86.3828 19.5539 88.0299 17.9583 90.7946 17.9583C93.2063 17.9583 95.0593 19.3508 95.0593 22.1069V27.9673C95.0593 30.8105 93.0887 32 90.7063 32C89.0593 32 87.8534 31.3907 87.1475 30.5494C87.0887 30.4623 87.0299 30.3463 87.0299 30.1722C87.0299 29.8241 87.324 29.534 87.6769 29.534C87.8534 29.534 88.0005 29.563 88.1769 29.766C88.6769 30.2592 89.3534 30.7524 90.6769 30.7524C92.4416 30.7524 93.6769 29.8821 93.6769 27.9673ZM93.6769 22.1069C93.6769 20.1051 92.4122 19.1767 90.7946 19.1767C88.824 19.1767 87.7652 20.3952 87.7652 23.0063C87.7652 25.5884 88.8534 26.8359 90.7946 26.8359C92.7946 26.8359 93.6769 25.1242 93.6769 25.1242V22.1069Z" fill="white"/>
<path class="cls-1" d="M97.4121 15.3181C97.4121 14.7089 97.7062 14.4768 98.2062 14.4768C98.7062 14.4768 99.0003 14.7089 99.0003 15.3181C99.0003 15.8113 98.7062 16.1015 98.2062 16.1015C97.7062 16.1015 97.4121 15.8113 97.4121 15.3181ZM98.9121 27.271C98.9121 27.6482 98.618 27.9383 98.2356 27.9383C97.8533 27.9383 97.5592 27.6482 97.5592 27.271V18.7705C97.5592 18.3934 97.8533 18.1033 98.2356 18.1033C98.618 18.1033 98.9121 18.3934 98.9121 18.7705V27.271Z" fill="white"/>
<path class="cls-1" d="M102.205 16.0435C102.205 15.6954 102.528 15.3762 102.881 15.3762C103.264 15.3762 103.558 15.6954 103.558 16.0435V18.2484H104.94C105.293 18.2484 105.587 18.5095 105.587 18.8866C105.587 19.2348 105.323 19.5249 104.94 19.5249H103.558V25.3273C103.558 26.2266 104.058 26.7198 104.793 26.7198C105.146 26.7198 105.44 26.9809 105.44 27.3581C105.44 27.7062 105.146 27.9963 104.793 27.9963C103.117 27.9963 102.205 26.8939 102.205 25.3563V19.5539H101.381C101.028 19.5539 100.734 19.2928 100.734 18.9157C100.734 18.5675 100.999 18.2774 101.381 18.2774H102.205V16.0435Z" fill="white"/>
<path class="cls-1" d="M108.706 20.2792C108.5 20.5113 108.353 20.5693 108.147 20.5693C107.794 20.5693 107.529 20.3082 107.529 19.9601C107.529 19.815 107.559 19.699 107.647 19.6119C108.235 18.6835 109.382 17.9583 111.176 17.9583C113.647 17.9583 115 19.3798 115 21.5267V27.3C115 27.6482 114.706 27.9383 114.353 27.9383C114 27.9383 113.706 27.6482 113.706 27.3V26.5457C113.176 27.5321 111.941 28.0544 110.676 28.0544C108.412 28.0544 107 26.9809 107 25.0661C107 23.2094 108.412 22.1069 110.735 22.1069H113.735V21.5267C113.735 20.1051 112.765 19.2058 111.235 19.2058C110.029 19.2348 109.353 19.5539 108.706 20.2792ZM113.676 24.1668V23.2964H110.676C109.294 23.2964 108.324 23.8767 108.324 25.0952C108.324 26.1976 109.088 26.8939 110.735 26.8939C112.235 26.8359 113.676 25.9365 113.676 24.1668Z" fill="white"/>
<path class="cls-1" d="M118.912 13.5196V25.5014C118.912 26.3428 119.176 26.6909 119.764 26.6909C120.117 26.6909 120.412 26.952 120.412 27.3292C120.412 27.6773 120.117 27.9674 119.764 27.9674C118.353 27.9674 117.559 27.1261 117.559 25.5014V13.5196C117.559 13.1714 117.882 12.8523 118.235 12.8523C118.617 12.8523 118.912 13.1424 118.912 13.5196Z" fill="white"/>
<path class="cls-3" d="M65.8814 30.5493C65.5285 30.5493 65.2344 30.2592 65.2344 29.9111V16.3336C65.2344 15.9854 65.5285 15.6953 65.8814 15.6953C66.2344 15.6953 66.5285 15.9854 66.5285 16.3336V29.9111C66.4991 30.2592 66.2344 30.5493 65.8814 30.5493Z" fill="white"/>
<path class="cls-2" d="M9.88235 27.0099C9.85294 27.3581 9.55882 27.5902 9.23529 27.5902H0.647059C0.264706 27.5612 0 27.3 0 26.9229C0 26.5748 0.264706 26.2846 0.647059 26.2846H1.41176V14.7379H0.647059C0.264706 14.7379 0 14.4768 0 14.0997C0 13.7515 0.264706 13.4614 0.647059 13.4614H8.97059C9.35294 13.4614 9.61765 13.7225 9.61765 14.0997V15.6953C9.61765 16.0725 9.35294 16.3336 8.97059 16.3336C8.61765 16.3336 8.32353 16.0725 8.32353 15.6953V14.7379H2.88235V19.786H7.55882C7.91177 19.786 8.20588 20.0761 8.20588 20.4243C8.20588 20.7724 7.91177 21.0625 7.55882 21.0625H2.88235V26.2266H8.55882V25.2692C8.55882 24.8921 8.85294 24.631 9.20588 24.631C9.58824 24.631 9.85294 24.8921 9.85294 25.2692V27.0099H9.88235Z" fill="#FFCD00"/>
<path class="cls-2" d="M12.3528 20.3082C12.3528 22.5131 17.9411 21.7007 17.9411 25.0661C17.9411 26.9809 16.3528 27.8512 14.3234 27.8512C12.5881 27.8512 11.2352 27.0389 10.6764 26.3426C10.5587 26.1976 10.5293 26.0815 10.5293 25.9365C10.5293 25.5883 10.794 25.3272 11.1469 25.3272C11.2646 25.3272 11.4411 25.3562 11.6175 25.5303C12.2646 26.1685 13.1175 26.5457 14.3234 26.5457C15.5293 26.5457 16.5881 26.1395 16.5881 25.0661C16.5881 22.8902 10.9999 23.7606 10.9999 20.3082C10.9999 18.5675 12.4411 17.7551 14.2646 17.7551C15.7058 17.7551 16.8528 18.2483 17.4999 19.0897C17.5587 19.1767 17.6469 19.2928 17.6469 19.4958C17.6469 19.844 17.3822 20.1051 17.0293 20.1051C16.9117 20.1051 16.7646 20.0761 16.5881 19.902C15.9999 19.3508 15.3822 19.0316 14.2646 19.0316C13.294 19.0316 12.3528 19.3508 12.3528 20.3082Z" fill="#FFCD00"/>
<path class="cls-2" d="M19.0885 31.797C18.7355 31.797 18.4414 31.5359 18.4414 31.1588C18.4414 30.8106 18.7061 30.5205 19.0885 30.5205H19.9708V19.293H19.0885C18.7355 19.293 18.4414 19.0318 18.4414 18.6547C18.4414 18.3066 18.7061 18.0164 19.0885 18.0164H20.7061C21.0591 18.0164 21.3532 18.2775 21.3532 18.6547V19.2059C21.7649 18.4806 22.8238 17.7263 24.2355 17.7263C27.0002 17.7263 28.6767 19.322 28.6767 22.7744C28.6767 26.2268 27.0002 27.8514 24.2355 27.8514C22.8238 27.8514 21.7943 27.0971 21.3532 26.3718V30.5205H22.4708C22.8238 30.5205 23.1179 30.7816 23.1179 31.1588C23.1179 31.5069 22.8532 31.797 22.4708 31.797H19.0885V31.797ZM24.2355 26.6329C26.2061 26.6329 27.2944 25.4144 27.2944 22.8034C27.2944 20.1923 26.1473 18.9738 24.1767 18.9738C22.5885 18.9738 21.2943 20.0763 21.2943 22.8034C21.2943 25.5015 22.5885 26.6329 24.2355 26.6329Z" fill="#FFCD00"/>
<path class="cls-2" d="M36.7942 27.5613C36.4707 27.5613 36.2942 27.2712 36.2942 27.0101V26.3138C35.7648 27.3002 34.4119 27.8224 33.1472 27.8224C30.8825 27.8224 29.4707 26.749 29.4707 24.8342C29.4707 22.9775 30.8825 21.875 33.206 21.875H36.206V21.2948C36.206 19.8732 35.2354 18.9738 33.706 18.9738C32.5884 18.9738 31.8825 19.322 31.2354 20.0473C31.0295 20.2794 30.8825 20.3374 30.6766 20.3374C30.3236 20.3374 30.0589 20.0763 30.0589 19.7281C30.0589 19.5831 30.0884 19.467 30.1766 19.38C30.7648 18.4516 31.9119 17.7263 33.706 17.7263C36.1766 17.7263 37.5295 19.1479 37.5295 21.2948V26.2848H38.4119C38.7648 26.2848 39.0589 26.5459 39.0589 26.9231C39.0589 27.2712 38.7942 27.5613 38.4119 27.5613H36.7942ZM33.2942 26.6329C34.7942 26.6329 36.206 25.7336 36.206 23.9348V23.0645H33.206C31.8236 23.0645 30.8531 23.6447 30.8531 24.8632C30.8531 25.9367 31.6178 26.6329 33.2942 26.6329Z" fill="#FFCD00"/>
<path class="cls-2" d="M39.9127 27.5612C39.5597 27.5612 39.2656 27.3001 39.2656 26.9229C39.2656 26.5748 39.5303 26.2846 39.9127 26.2846H40.795V19.2928H39.9127C39.5597 19.2928 39.2656 19.0317 39.2656 18.6545C39.2656 18.3064 39.5303 18.0163 39.9127 18.0163H41.5303C41.8833 18.0163 42.1774 18.2774 42.1774 18.6545V19.2058C42.5892 18.4225 43.6186 17.7262 45.0009 17.7262C48.2656 17.7262 48.9127 19.67 48.9127 21.4397V26.2846H49.795C50.148 26.2846 50.4421 26.5458 50.4421 26.9229C50.4421 27.271 50.1774 27.5612 49.795 27.5612H46.648C46.295 27.5612 46.0009 27.3001 46.0009 26.9229C46.0009 26.5748 46.2656 26.2846 46.648 26.2846H47.5303V21.7298C47.5303 20.0761 47.0303 18.9447 44.9715 18.9447C43.0009 18.9447 42.148 20.1922 42.148 21.8749V26.3137H43.0303C43.3833 26.3137 43.6774 26.5748 43.6774 26.9519C43.6774 27.3001 43.4127 27.5902 43.0303 27.5902H39.9127V27.5612ZM46.4127 15.4633C46.8245 15.4633 47.0597 15.2892 47.3539 14.912C47.4127 14.825 47.5303 14.6799 47.7656 14.6799C48.0303 14.6799 48.2656 14.912 48.2656 15.1731C48.2656 15.7244 47.4421 16.4497 46.4421 16.4497C45.4421 16.4497 44.9127 15.6663 44.0597 15.6663C43.648 15.6663 43.4127 15.8404 43.1186 16.2466C43.0597 16.3046 42.9421 16.4497 42.7068 16.4497C42.4421 16.4497 42.2068 16.2466 42.2068 15.9565C42.2068 15.3762 43.0892 14.6799 44.0303 14.6799C45.0303 14.7089 45.5597 15.4633 46.4127 15.4633Z" fill="#FFCD00"/>
<path class="cls-2" d="M57.9993 27.5613C57.6758 27.5613 57.4993 27.2712 57.4993 27.0101V26.3138C56.9699 27.3002 55.617 27.8224 54.3523 27.8224C52.0875 27.8224 50.6758 26.749 50.6758 24.8342C50.6758 22.9775 52.0875 21.875 54.4111 21.875H57.4111V21.2948C57.4111 19.8732 56.4405 18.9738 54.9111 18.9738C53.7934 18.9738 53.0875 19.322 52.4405 20.0473C52.2346 20.2794 52.0875 20.3374 51.8817 20.3374C51.5287 20.3374 51.264 20.0763 51.264 19.7281C51.264 19.5831 51.2934 19.467 51.3817 19.38C51.9699 18.4516 53.117 17.7263 54.9111 17.7263C57.3817 17.7263 58.7346 19.1479 58.7346 21.2948V26.2848H59.617C59.9699 26.2848 60.264 26.5459 60.264 26.9231C60.264 27.2712 59.9993 27.5613 59.617 27.5613H57.9993ZM54.4993 26.6329C55.9993 26.6329 57.4111 25.7336 57.4111 23.9348V23.0645H54.4111C53.0287 23.0645 52.0581 23.6447 52.0581 24.8632C52.0581 25.9367 52.8228 26.6329 54.4993 26.6329Z" fill="#FFCD00"/>
</g>
<defs>
<clipPath id="clip0_2686_137595">
<rect width="142" height="32" fill="white"/>
</clipPath>
</defs>
</svg>