<?xml version="1.0" standalone="no"?>
<!DOCTYPE svg PUBLIC "-//W3C//DTD SVG 20010904//EN"
 "http://www.w3.org/TR/2001/REC-SVG-20010904/DTD/svg10.dtd">
<svg version="1.0" xmlns="http://www.w3.org/2000/svg"
 width="6647.000000pt" height="1581.000000pt" viewBox="0 0 6647.000000 1581.000000"
 preserveAspectRatio="xMidYMid meet">

<g transform="translate(0.000000,1581.000000) scale(0.100000,-0.100000)"
fill="#000000" stroke="none">
<path d="M26567 15803 c-4 -3 -7 -795 -7 -1760 l0 -1753 360 0 360 0 0 745 0
745 730 0 730 0 0 300 0 300 -730 0 -730 0 0 415 0 415 850 0 850 0 -2 298 -3
297 -1201 3 c-660 1 -1204 -1 -1207 -5z"/>
<path d="M29560 15495 l0 -315 335 0 335 0 0 315 0 315 -335 0 -335 0 0 -315z"/>
<path d="M42400 15495 l0 -315 335 0 335 0 0 315 0 315 -335 0 -335 0 0 -315z"/>
<path d="M48167 15803 c-4 -3 -7 -287 -7 -631 l0 -625 -74 70 c-187 178 -375
260 -618 270 -299 13 -535 -70 -744 -261 -176 -159 -292 -389 -346 -682 -19
-102 -22 -155 -22 -369 0 -212 4 -267 22 -365 56 -303 166 -518 363 -705 133
-126 263 -202 427 -247 116 -32 364 -32 477 0 215 62 403 189 538 362 l27 35
0 -182 0 -183 315 0 315 0 0 1760 0 1760 -333 0 c-184 0 -337 -3 -340 -7z
m-477 -1433 c152 -24 309 -141 378 -282 99 -203 128 -605 62 -865 -47 -181
-169 -343 -311 -412 -187 -91 -425 -52 -568 92 -151 152 -198 297 -208 637 -6
210 6 320 48 446 52 160 190 310 329 359 91 32 174 40 270 25z"/>
<path d="M10 7925 l0 -7875 11815 0 11815 0 0 7875 0 7875 -11815 0 -11815 0
0 -7875z m11905 5688 l93 -288 306 -5 306 -5 -245 -175 c-134 -96 -245 -179
-245 -184 0 -5 41 -135 90 -289 50 -154 89 -281 87 -283 -2 -2 -111 75 -242
171 -132 96 -243 175 -248 175 -5 0 -117 -79 -249 -176 -132 -96 -241 -174
-243 -172 -1 2 39 131 90 288 91 280 92 285 73 302 -11 10 -121 91 -246 180
l-227 163 302 3 c275 2 303 4 311 20 5 9 49 142 97 294 49 153 91 276 93 273
3 -2 46 -134 97 -292z m-2582 -689 l93 -289 308 -5 309 -5 -243 -174 c-133
-96 -244 -180 -247 -186 -2 -7 37 -137 86 -291 50 -153 88 -280 86 -282 -2 -2
-112 75 -245 172 -146 108 -245 174 -253 170 -7 -4 -116 -83 -243 -176 -127
-92 -234 -168 -237 -168 -5 0 15 63 131 426 l49 151 -249 179 -249 179 308 3
308 2 94 295 c52 162 96 293 98 291 2 -2 45 -134 96 -292z m5167 -1 l93 -293
309 -2 308 -3 -249 -179 -249 -178 14 -47 c8 -25 49 -155 93 -289 47 -144 74
-241 66 -238 -7 2 -113 78 -236 168 -123 91 -229 168 -236 172 -8 4 -106 -61
-254 -169 -132 -97 -243 -175 -245 -173 -2 3 37 130 86 284 49 153 90 282 90
286 0 4 -111 87 -247 185 l-247 178 309 5 308 5 18 55 c10 30 52 162 94 293
42 132 78 237 79 235 2 -1 45 -135 96 -295z m1885 -1886 l91 -282 307 -3 c169
-1 307 -6 307 -10 0 -4 -111 -85 -245 -181 -135 -96 -245 -179 -245 -184 0 -5
41 -135 91 -289 50 -154 89 -281 87 -283 -2 -2 -113 77 -247 175 l-244 178
-51 -37 c-159 -117 -423 -308 -433 -315 -8 -4 -11 -2 -8 6 22 63 184 572 182
573 -28 18 -488 349 -491 354 -2 3 132 4 299 2 287 -3 304 -2 312 15 5 11 49
144 98 296 49 153 91 275 94 273 3 -3 46 -133 96 -288z m-8939 -10 l91 -282
309 -5 309 -5 -35 -26 c-19 -15 -127 -93 -240 -174 -113 -81 -209 -151 -214
-155 -4 -4 33 -136 83 -292 50 -156 91 -287 91 -290 0 -4 -111 74 -246 173
-162 117 -250 176 -258 170 -20 -15 -463 -338 -475 -345 -6 -4 -9 -2 -6 6 56
162 182 574 176 578 -4 3 -117 84 -250 180 l-243 175 310 3 310 2 51 163 c106
330 135 416 141 411 3 -3 46 -132 96 -287z m-690 -2584 l89 -282 308 -3 309
-3 -242 -174 c-133 -95 -244 -179 -247 -186 -2 -8 36 -139 86 -291 49 -153 88
-280 86 -282 -2 -3 -113 75 -246 172 -132 97 -244 176 -248 174 -4 -2 -113
-81 -243 -175 -130 -95 -239 -173 -242 -173 -6 0 4 34 102 336 l79 241 -250
179 -249 179 308 3 309 2 94 296 c52 162 98 289 101 282 4 -7 47 -140 96 -295z
m10358 -120 l48 -153 311 -2 311 -3 -244 -175 c-134 -96 -247 -177 -251 -180
-6 -4 131 -453 176 -578 3 -8 0 -10 -8 -5 -11 6 -444 322 -473 345 -8 6 -95
-52 -255 -170 -134 -99 -245 -178 -247 -177 -2 2 38 132 89 291 88 277 91 288
73 301 -10 8 -89 65 -174 126 -85 61 -189 136 -230 167 l-75 55 309 5 310 5
87 272 c47 150 90 280 94 290 8 18 38 -66 149 -414z m-9669 -2456 l91 -282
307 -3 c169 -1 307 -6 307 -10 0 -4 -111 -86 -245 -182 -135 -96 -245 -178
-245 -182 0 -4 41 -134 91 -289 50 -154 89 -282 87 -284 -2 -2 -113 77 -247
175 l-243 178 -227 -165 c-124 -91 -234 -172 -244 -181 -9 -8 -19 -13 -21 -11
-1 2 38 132 89 289 51 157 90 288 88 292 -2 4 -105 80 -228 168 -123 88 -234
169 -246 179 -21 17 -12 18 287 13 l309 -5 94 296 c52 163 97 294 100 291 3
-3 47 -132 96 -287z m8940 0 l91 -282 307 -3 c169 -1 307 -6 307 -10 0 -4
-111 -86 -245 -182 -135 -96 -245 -179 -245 -184 0 -5 41 -135 91 -289 50
-153 89 -280 87 -282 -2 -2 -113 77 -247 175 l-245 178 -70 -52 c-148 -109
-401 -293 -413 -299 -11 -7 4 44 116 391 l59 183 -72 52 c-39 29 -149 108
-244 176 -94 68 -174 126 -177 130 -2 4 132 6 299 3 290 -4 304 -4 313 14 5
11 49 144 98 296 49 153 91 275 94 273 3 -3 46 -133 96 -288z m-1890 -1902
l90 -280 307 -5 306 -5 -244 -175 c-134 -96 -244 -182 -244 -190 0 -8 41 -139
90 -290 49 -151 88 -276 86 -277 -2 -2 -105 71 -229 161 -124 91 -234 170
-245 177 -17 11 -46 -7 -262 -165 -133 -97 -244 -175 -246 -174 -2 2 37 128
87 281 49 152 89 282 89 289 0 7 -110 92 -244 188 l-244 175 306 5 305 5 38
115 c21 63 64 196 95 294 32 99 60 173 63 165 3 -8 46 -140 96 -294z m-5218
198 c18 -54 59 -185 93 -290 l62 -193 305 -2 306 -3 -242 -174 c-133 -95 -243
-177 -246 -180 -2 -4 36 -133 86 -286 49 -154 88 -283 87 -287 -2 -3 -111 72
-242 168 -131 96 -242 174 -246 174 -4 0 -115 -78 -246 -174 -131 -96 -240
-171 -242 -168 -1 4 38 133 87 287 50 153 88 282 86 286 -3 3 -113 85 -246
180 l-242 174 306 3 305 2 62 193 c110 346 124 387 130 387 3 0 20 -44 37 -97z
m2638 -876 l91 -282 309 -5 310 -5 -55 -41 c-30 -22 -142 -103 -247 -178 -106
-76 -193 -142 -193 -146 0 -4 41 -134 90 -287 50 -154 90 -283 90 -286 0 -4
-111 74 -246 173 -159 116 -251 177 -258 171 -19 -15 -463 -338 -474 -345 -11
-7 2 39 107 364 39 118 66 217 62 220 -4 3 -117 84 -251 180 l-244 175 311 3
311 2 47 148 c112 352 139 432 144 426 3 -3 47 -132 96 -287z"/>
<path d="M32170 14871 c-220 -48 -412 -163 -565 -339 l-55 -63 -2 183 -3 183
-312 3 -313 2 0 -1275 0 -1275 334 0 334 0 5 733 c5 725 10 832 42 962 44 174
163 301 339 363 98 34 244 35 329 3 116 -45 200 -141 232 -266 27 -110 35
-334 35 -1067 l0 -728 335 0 336 0 -4 958 c-3 937 -4 959 -25 1052 -33 146
-97 267 -191 361 -64 64 -93 85 -181 127 -155 75 -233 93 -425 98 -130 3 -176
0 -245 -15z"/>
<path d="M34700 14884 c-409 -48 -645 -194 -793 -489 -41 -82 -90 -215 -82
-223 5 -5 565 -111 592 -112 6 0 28 33 47 74 48 99 110 166 185 200 85 38 203
51 333 38 191 -21 265 -58 314 -159 25 -49 29 -72 32 -160 l4 -103 -37 -16
c-70 -29 -290 -84 -515 -130 -549 -111 -720 -181 -867 -355 -97 -116 -149
-252 -160 -419 -13 -226 57 -421 207 -570 164 -164 384 -238 675 -227 264 10
454 83 667 256 l87 70 10 -32 c5 -18 24 -78 41 -134 l31 -103 334 0 334 0 -34
80 c-42 99 -73 199 -93 310 -14 72 -16 190 -18 775 -1 716 -5 797 -45 943 -34
127 -85 204 -193 289 -119 93 -244 144 -441 180 -77 13 -534 26 -615 17z m620
-1774 c-23 -131 -84 -224 -195 -299 -177 -118 -366 -140 -518 -58 -95 50 -156
134 -176 240 -29 157 62 288 239 347 36 12 169 46 295 76 127 29 259 61 295
71 l65 18 3 -165 c2 -91 -2 -194 -8 -230z"/>
<path d="M37910 14871 c-223 -49 -402 -155 -564 -334 l-65 -72 -1 188 0 187
-310 0 -310 0 0 -1275 0 -1275 335 0 335 0 0 648 c0 840 12 1004 79 1148 54
116 180 224 305 263 280 86 519 -39 566 -297 22 -123 29 -388 30 -1069 l0
-693 335 0 335 0 0 878 c0 1079 -4 1133 -102 1332 -63 126 -159 219 -298 288
-152 74 -232 93 -425 98 -131 3 -175 0 -245 -15z"/>
<path d="M40506 14874 c-373 -58 -671 -268 -836 -590 -50 -97 -103 -257 -126
-384 -26 -137 -26 -545 -1 -679 53 -275 162 -495 328 -661 221 -221 509 -330
870 -330 616 0 996 271 1155 823 14 49 24 91 21 93 -8 8 -649 116 -654 110 -2
-2 -14 -40 -25 -83 -52 -206 -165 -335 -332 -379 -69 -19 -207 -17 -287 4
-183 48 -314 196 -368 417 -56 227 -54 558 5 764 70 244 252 381 504 381 199
0 336 -78 411 -234 16 -33 34 -84 40 -113 11 -46 15 -52 33 -48 27 6 634 115
641 115 10 0 -60 182 -106 270 -153 299 -405 470 -772 524 -128 20 -378 19
-501 0z"/>
<path d="M44497 14879 c-192 -26 -344 -75 -460 -149 -82 -52 -202 -177 -256
-267 -46 -78 -108 -225 -113 -268 l-3 -28 290 -53 c160 -29 295 -53 301 -53 6
-1 29 37 52 83 57 114 125 177 225 208 59 18 95 22 197 22 320 -1 440 -95 440
-346 l0 -79 -36 -15 c-69 -29 -291 -85 -513 -130 -505 -101 -684 -168 -825
-309 -83 -82 -136 -168 -173 -280 -25 -73 -27 -94 -27 -235 0 -141 2 -162 27
-235 82 -246 275 -420 539 -486 117 -29 333 -36 453 -15 206 36 389 124 552
267 l58 51 43 -136 43 -136 334 0 334 0 -28 63 c-40 89 -78 209 -97 307 -15
73 -17 179 -20 770 -2 407 -8 726 -14 785 -23 210 -60 303 -160 409 -118 124
-284 204 -500 242 -112 19 -555 28 -663 13z m663 -1753 c-13 -99 -45 -171
-107 -237 -154 -167 -415 -233 -588 -149 -168 81 -247 279 -172 432 53 109
146 159 402 218 77 18 214 51 305 74 l165 41 3 -150 c2 -82 -2 -186 -8 -229z"/>
<path d="M50475 14883 c-73 -9 -234 -47 -299 -70 -314 -112 -545 -319 -686
-616 -109 -229 -135 -351 -135 -632 1 -233 17 -348 74 -517 143 -422 474 -697
958 -795 125 -25 444 -25 562 1 322 69 582 235 773 491 223 298 307 727 224
1135 -106 524 -519 916 -1048 994 -96 15 -339 20 -423 9z m339 -559 c99 -26
174 -71 261 -159 91 -91 141 -178 177 -310 20 -71 22 -104 22 -295 0 -190 -3
-224 -22 -294 -37 -134 -86 -221 -177 -312 -121 -123 -243 -174 -413 -174
-258 1 -479 163 -567 417 -71 204 -73 510 -4 719 65 198 228 356 420 408 73
20 226 20 303 0z"/>
<path d="M55090 14876 c-130 -28 -257 -84 -365 -161 -60 -42 -181 -162 -223
-220 l-21 -30 -1 188 0 187 -312 -2 -313 -3 -3 -1757 -2 -1758 340 0 340 0 0
636 0 636 88 -82 c209 -196 404 -280 650 -280 268 0 483 86 677 271 118 113
173 186 235 309 119 237 169 504 157 840 -14 405 -117 691 -330 916 -104 110
-188 174 -302 230 -137 66 -223 86 -400 90 -101 2 -171 -1 -215 -10z m173
-545 c121 -42 234 -147 299 -275 57 -113 80 -229 85 -437 10 -359 -41 -552
-184 -700 -255 -264 -672 -182 -844 166 -113 231 -132 634 -40 897 66 190 230
335 421 372 56 10 206 -2 263 -23z"/>
<path d="M57845 14883 c-143 -18 -323 -72 -440 -130 -259 -130 -455 -341 -570
-614 -89 -210 -121 -394 -112 -629 17 -402 135 -700 366 -923 140 -135 284
-219 491 -285 150 -48 234 -63 396 -69 419 -16 722 99 999 381 212 215 315
426 361 738 20 136 15 377 -11 506 -53 272 -173 491 -374 685 -193 186 -427
298 -705 336 -72 10 -334 13 -401 4z m338 -558 c315 -82 500 -407 472 -832
-21 -330 -141 -544 -367 -659 -103 -52 -269 -69 -396 -39 -218 51 -382 228
-449 484 -23 85 -26 116 -26 276 -1 193 10 262 57 388 69 185 228 333 407 381
72 19 230 20 302 1z"/>
<path d="M60911 14875 c-133 -38 -244 -128 -362 -296 l-64 -90 -5 173 -5 173
-312 3 -313 2 0 -1275 0 -1275 339 0 339 0 5 688 c3 568 7 706 21 798 51 352
178 507 416 508 96 0 159 -17 259 -71 35 -18 64 -33 66 -31 3 5 205 578 205
583 0 10 -120 64 -200 90 -107 35 -301 44 -389 20z"/>
<path d="M29560 13565 l0 -1275 335 0 335 0 0 1275 0 1275 -335 0 -335 0 0
-1275z"/>
<path d="M42400 13565 l0 -1275 335 0 335 0 0 1275 0 1275 -335 0 -335 0 0
-1275z"/>
<path d="M41005 9778 c-49 -106 -124 -268 -166 -360 l-78 -168 214 0 214 0
323 351 c178 192 325 354 326 360 2 5 -141 9 -370 9 l-375 0 -88 -192z"/>
<path d="M26557 9903 c-4 -3 -7 -795 -7 -1760 l0 -1753 340 0 340 0 0 1760 0
1760 -333 0 c-184 0 -337 -3 -340 -7z"/>
<path d="M32020 8873 c0 -1246 11 -1498 75 -1751 86 -337 374 -621 738 -726
152 -44 273 -58 557 -63 373 -7 573 22 785 114 352 152 559 429 614 823 30
216 34 340 38 1473 l5 1167 -356 0 -356 0 0 -1037 c0 -1318 -9 -1503 -77
-1643 -38 -80 -155 -193 -235 -229 -176 -80 -453 -90 -658 -25 -188 59 -336
217 -385 409 -28 109 -35 399 -35 1468 l0 1057 -355 0 -355 0 0 -1037z"/>
<path d="M38580 9595 l0 -315 335 0 335 0 0 315 0 315 -335 0 -335 0 0 -315z"/>
<path d="M47320 8150 l0 -1760 1340 0 1340 0 0 295 0 295 -985 0 -985 0 0 480
0 480 885 0 885 0 0 295 0 295 -885 0 -885 0 0 390 0 390 950 0 950 0 0 300 0
300 -1305 0 -1305 0 0 -1760z"/>
<path d="M28626 8975 c-416 -59 -663 -257 -790 -632 -22 -65 -23 -73 -8 -77
32 -9 593 -108 596 -104 1 1 18 37 38 78 20 41 53 94 73 117 80 94 241 135
446 114 251 -25 341 -113 343 -340 l1 -84 -70 -24 c-106 -36 -283 -79 -549
-133 -469 -95 -634 -164 -782 -323 -121 -131 -177 -286 -177 -487 0 -140 19
-224 75 -339 33 -69 57 -102 132 -176 77 -79 105 -99 186 -139 155 -75 223
-89 440 -90 173 -1 192 1 284 27 170 47 310 122 452 243 35 30 65 50 67 46 3
-4 19 -56 37 -117 18 -60 36 -118 41 -127 9 -17 36 -18 340 -18 261 0 330 3
326 13 -79 184 -108 283 -128 432 -8 62 -13 303 -13 780 -2 744 -4 779 -57
930 -78 217 -290 363 -614 421 -126 23 -554 28 -689 9z m704 -1487 c-1 -325
-42 -451 -182 -557 -114 -86 -230 -126 -363 -124 -104 0 -177 28 -248 93 -77
70 -109 136 -115 230 -5 88 12 140 68 203 68 78 157 113 468 183 114 25 241
57 282 69 41 12 78 23 83 24 4 0 7 -54 7 -121z"/>
<path d="M36820 8971 c-223 -49 -402 -155 -564 -334 l-65 -72 -1 188 0 187
-310 0 -310 0 0 -1275 0 -1275 335 0 335 0 0 648 c0 832 12 1005 79 1148 54
116 180 224 305 263 280 86 519 -39 566 -297 22 -123 29 -388 30 -1069 l0
-693 335 0 335 0 0 878 c0 1079 -4 1133 -102 1332 -63 126 -159 219 -298 288
-152 74 -232 93 -425 98 -131 3 -175 0 -245 -15z"/>
<path d="M40860 8975 c-430 -68 -755 -305 -935 -680 -97 -204 -135 -377 -135
-619 0 -564 214 -965 628 -1179 211 -109 388 -155 632 -164 412 -15 755 120
1015 400 176 189 284 409 330 672 24 134 24 384 1 520 -94 556 -510 966 -1066
1050 -117 18 -355 18 -470 0z m372 -546 c165 -34 321 -162 401 -329 69 -144
82 -217 81 -450 0 -167 -4 -206 -22 -275 -68 -252 -232 -426 -452 -481 -96
-24 -253 -15 -344 20 -145 55 -259 163 -331 311 -60 125 -77 207 -82 405 -6
211 15 327 84 470 77 161 220 281 383 324 66 18 209 20 282 5z"/>
<path d="M44190 8971 c-221 -48 -402 -157 -564 -339 l-56 -62 -2 182 -3 183
-312 3 -313 2 0 -1275 0 -1275 334 0 334 0 5 723 c5 718 10 840 43 972 42 173
162 301 338 363 98 34 244 35 329 3 116 -45 200 -141 231 -266 29 -112 36
-328 36 -1062 l0 -733 335 0 336 0 -4 958 c-3 937 -4 959 -25 1052 -33 146
-97 267 -191 361 -64 64 -93 85 -181 127 -155 75 -233 93 -425 98 -130 3 -176
0 -245 -15z"/>
<path d="M54633 8975 c-143 -40 -249 -126 -373 -303 l-65 -93 -3 181 -2 180
-310 0 -310 0 0 -1275 0 -1275 335 0 335 0 0 478 c0 866 24 1132 117 1315 107
212 357 265 599 127 l54 -31 9 23 c5 13 49 138 99 278 50 140 93 263 97 272 5
13 -9 24 -67 51 -127 61 -199 79 -338 83 -90 3 -140 0 -177 -11z"/>
<path d="M56485 8983 c-518 -65 -897 -371 -1059 -855 -61 -180 -82 -363 -66
-572 45 -593 312 -964 823 -1145 287 -101 649 -107 924 -16 241 80 439 218
592 413 195 248 281 508 282 852 1 406 -123 719 -386 976 -191 186 -420 298
-695 339 -86 14 -336 18 -415 8z m330 -558 c162 -41 308 -162 384 -315 71
-145 84 -215 85 -440 0 -170 -2 -206 -22 -285 -58 -231 -195 -397 -388 -471
-91 -35 -248 -44 -344 -20 -190 48 -352 196 -424 387 -45 121 -59 225 -53 419
5 200 22 283 84 409 72 147 234 280 386 317 73 17 221 17 292 -1z"/>
<path d="M59730 8976 c-129 -28 -256 -84 -365 -161 -59 -42 -164 -146 -217
-215 l-27 -35 -1 188 0 187 -312 -2 -313 -3 -3 -1757 -2 -1758 340 0 340 0 0
636 0 636 88 -82 c226 -211 421 -289 697 -277 269 11 468 101 665 299 242 243
360 584 360 1038 0 361 -77 652 -232 877 -58 84 -208 232 -291 287 -80 52
-193 103 -285 128 -99 26 -345 34 -442 14z m173 -544 c75 -27 178 -101 228
-165 115 -144 159 -314 159 -607 0 -325 -56 -512 -193 -650 -222 -222 -577
-188 -775 75 -109 146 -155 319 -156 595 -1 194 11 282 54 400 71 196 216 329
405 370 66 15 213 5 278 -18z"/>
<path d="M62272 8976 c-416 -79 -730 -358 -866 -767 -41 -125 -61 -217 -77
-364 -14 -135 -6 -394 16 -525 20 -112 80 -301 126 -391 199 -396 566 -599
1079 -599 506 0 864 208 1056 614 23 50 45 102 49 116 l6 25 -323 54 c-178 29
-328 55 -333 57 -6 3 -21 -25 -33 -61 -32 -88 -91 -175 -147 -218 -179 -137
-460 -106 -634 71 -105 105 -159 232 -177 411 l-7 71 848 0 848 0 -6 178 c-16
477 -138 808 -383 1043 -145 138 -312 225 -531 275 -96 22 -415 28 -511 10z
m338 -507 c232 -37 391 -233 416 -515 l7 -74 -507 0 -506 0 0 23 c2 126 43
266 107 359 73 109 170 176 295 203 79 17 107 18 188 4z"/>
<path d="M64956 8975 c-416 -59 -663 -257 -790 -632 -22 -65 -23 -73 -8 -77
32 -9 593 -108 596 -104 1 1 18 37 38 78 20 41 53 94 73 117 80 94 241 135
446 114 251 -25 341 -113 343 -340 l1 -84 -70 -24 c-106 -36 -283 -79 -549
-133 -469 -95 -634 -164 -782 -323 -121 -131 -177 -286 -177 -487 0 -140 19
-224 75 -339 33 -69 57 -102 132 -176 77 -79 105 -99 186 -139 155 -75 223
-89 440 -90 173 -1 192 1 284 27 170 47 310 122 452 243 35 30 65 50 67 46 3
-4 19 -56 37 -117 18 -60 36 -118 41 -127 9 -17 36 -18 340 -18 261 0 330 3
326 13 -79 184 -108 283 -128 432 -8 62 -13 303 -13 780 -2 744 -4 779 -57
930 -78 217 -290 363 -614 421 -126 23 -554 28 -689 9z m704 -1487 c-1 -325
-42 -451 -182 -557 -114 -86 -230 -126 -363 -124 -104 0 -177 28 -248 93 -77
70 -109 136 -115 230 -5 88 12 140 68 203 68 78 157 113 468 183 114 25 241
57 282 69 41 12 78 23 83 24 4 0 7 -54 7 -121z"/>
<path d="M38580 7665 l0 -1275 335 0 335 0 0 1275 0 1275 -335 0 -335 0 0
-1275z"/>
<path d="M50580 8065 c0 -547 4 -912 11 -973 27 -248 92 -406 219 -533 63 -63
94 -85 181 -128 136 -67 232 -92 387 -98 138 -6 234 6 357 44 88 28 215 88
285 136 57 39 162 138 211 200 l39 49 0 -186 0 -186 315 0 315 0 0 1275 0
1275 -337 -2 -338 -3 -6 -785 c-7 -870 -10 -906 -69 -1027 -113 -229 -434
-346 -666 -243 -100 44 -180 153 -203 275 -21 108 -30 469 -31 1133 l0 652
-335 0 -335 0 0 -875z"/>
<path d="M36510 3130 c-264 -33 -522 -124 -704 -250 -310 -214 -528 -621 -587
-1093 -19 -157 -7 -463 25 -613 44 -208 118 -391 222 -551 70 -109 239 -280
348 -353 152 -102 368 -190 558 -230 550 -113 1084 16 1581 382 l67 50 0 564
0 564 -645 0 -645 0 0 -180 0 -180 450 0 450 0 0 -279 0 -279 -33 -29 c-78
-68 -276 -170 -432 -222 -366 -121 -750 -84 -1069 103 -38 23 -106 77 -152
121 -161 157 -254 349 -301 625 -23 135 -23 452 0 580 62 339 205 598 413 746
309 221 809 258 1149 87 183 -93 290 -223 372 -451 19 -53 35 -98 36 -99 4 -3
348 95 355 101 19 20 -110 332 -180 434 -47 69 -154 178 -224 228 -130 93
-333 173 -531 209 -104 19 -415 28 -523 15z"/>
<path d="M26560 1570 l0 -1520 195 0 195 0 2 1190 3 1191 795 -1190 795 -1190
208 -1 207 0 0 1520 0 1520 -195 0 -195 0 -2 -1186 -3 -1185 -794 1185 -793
1186 -209 0 -209 0 0 -1520z"/>
<path d="M50610 2875 l0 -215 190 0 190 0 0 215 0 215 -190 0 -190 0 0 -215z"/>
<path d="M56340 1570 l0 -1520 1135 0 1135 0 0 180 0 180 -935 0 -935 0 0 515
0 515 840 0 840 0 0 180 0 180 -840 0 -840 0 0 465 0 465 900 0 900 0 0 180 0
180 -1100 0 -1100 0 0 -1520z"/>
<path d="M59170 2203 c0 -489 5 -964 10 -1056 18 -295 63 -490 153 -662 57
-108 208 -261 321 -324 98 -56 269 -114 401 -137 141 -25 492 -25 625 -1 268
50 447 141 608 312 169 180 245 399 272 792 5 82 10 554 10 1056 l0 907 -205
0 -205 0 0 -974 c0 -1059 -2 -1107 -56 -1292 -53 -184 -136 -289 -284 -362
-132 -65 -238 -85 -455 -86 -193 -1 -253 7 -365 52 -203 79 -331 226 -380 435
-37 159 -40 252 -40 1252 l0 975 -205 0 -205 0 0 -887z"/>
<path d="M34323 2907 l-183 -110 0 -274 0 -273 -140 0 -140 0 0 -145 0 -145
139 0 140 0 4 -787 c3 -707 5 -795 21 -853 38 -146 122 -228 281 -276 75 -23
303 -26 418 -5 71 13 78 16 73 35 -2 12 -14 85 -26 163 l-22 141 -127 4 c-104
2 -132 7 -160 23 -46 27 -72 64 -82 116 -4 24 -8 358 -9 742 l0 697 190 0 190
0 0 145 0 145 -190 0 -190 0 -2 384 -3 384 -182 -111z"/>
<path d="M49683 2907 l-183 -110 0 -274 0 -273 -140 0 -140 0 0 -145 0 -145
139 0 140 0 4 -787 c3 -707 5 -795 21 -853 38 -146 122 -228 281 -276 75 -23
303 -26 418 -5 71 13 78 16 73 35 -2 12 -14 85 -26 163 l-22 141 -127 4 c-104
2 -132 7 -160 23 -46 27 -72 64 -82 116 -4 24 -8 358 -9 742 l0 697 190 0 190
0 0 145 0 145 -190 0 -190 0 -2 384 -3 384 -182 -111z"/>
<path d="M30325 2289 c-377 -54 -666 -300 -790 -671 -87 -264 -88 -701 -1
-954 53 -157 124 -273 230 -380 189 -189 440 -284 751 -284 407 0 715 169 879
482 45 86 93 214 83 224 -5 6 -369 55 -373 51 -1 -1 -26 -49 -55 -107 -112
-225 -292 -340 -534 -340 -287 0 -523 178 -613 460 -22 68 -37 140 -47 228
l-6 52 827 0 827 0 -7 148 c-11 247 -48 417 -127 576 -138 278 -387 462 -693
511 -98 16 -255 18 -351 4z m308 -314 c188 -40 349 -177 412 -350 27 -76 55
-193 55 -237 l0 -28 -615 0 -615 0 7 48 c10 78 40 187 66 239 132 259 404 389
690 328z"/>
<path d="M39295 2289 c-377 -54 -666 -300 -790 -671 -87 -264 -88 -701 -1
-954 53 -157 124 -273 230 -380 189 -189 440 -284 751 -284 407 0 715 169 879
482 45 86 93 214 83 224 -5 6 -369 55 -373 51 -1 -1 -26 -49 -55 -107 -112
-225 -292 -340 -534 -340 -287 0 -523 178 -613 460 -22 68 -37 140 -47 228
l-6 52 827 0 827 0 -7 148 c-11 247 -48 417 -127 576 -138 278 -387 462 -693
511 -98 16 -255 18 -351 4z m308 -314 c188 -40 349 -177 412 -350 27 -76 55
-193 55 -237 l0 -28 -615 0 -615 0 7 48 c10 78 40 187 66 239 132 259 404 389
690 328z"/>
<path d="M41776 2285 c-197 -38 -377 -151 -493 -310 l-22 -30 -1 153 0 152
-170 0 -170 0 0 -1100 0 -1100 184 0 184 0 5 693 c3 466 9 711 16 752 19 95
59 204 97 260 107 162 372 259 586 214 119 -25 230 -103 281 -198 60 -109 60
-114 64 -953 l4 -768 185 0 185 0 -3 837 c-4 830 -4 839 -26 917 -56 200 -149
319 -313 400 -52 25 -130 56 -174 67 -107 28 -310 34 -419 14z"/>
<path d="M44025 2289 c-377 -54 -666 -300 -790 -671 -87 -264 -88 -701 -1
-954 53 -157 124 -273 230 -380 189 -189 440 -284 751 -284 407 0 715 169 879
482 45 86 93 214 83 224 -5 6 -369 55 -373 51 -1 -1 -26 -49 -55 -107 -112
-225 -292 -340 -534 -340 -287 0 -523 178 -613 460 -22 68 -37 140 -47 228
l-6 52 827 0 827 0 -7 148 c-11 247 -48 417 -127 576 -138 278 -387 462 -693
511 -98 16 -255 18 -351 4z m308 -314 c188 -40 349 -177 412 -350 27 -76 55
-193 55 -237 l0 -28 -615 0 -615 0 7 48 c10 78 40 187 66 239 132 259 404 389
690 328z"/>
<path d="M46334 2279 c-117 -37 -203 -116 -302 -282 l-47 -77 -3 165 -2 165
-165 0 -165 0 0 -1100 0 -1100 185 0 185 0 0 623 c0 371 4 657 10 707 16 126
47 247 81 317 96 199 312 265 540 166 33 -14 61 -24 63 -22 3 2 32 78 66 168
43 116 58 167 50 176 -17 21 -143 74 -225 95 -97 25 -192 25 -271 -1z"/>
<path d="M47766 2284 c-198 -26 -380 -96 -499 -189 -105 -83 -193 -226 -237
-389 -12 -43 -19 -80 -17 -83 9 -9 352 -52 358 -45 4 4 16 37 28 73 43 131
122 233 214 278 90 44 163 56 332 55 218 0 327 -31 426 -121 73 -66 108 -174
109 -330 l0 -82 -64 -20 c-106 -33 -301 -69 -573 -106 -322 -44 -401 -63 -533
-127 -176 -85 -291 -220 -346 -404 -28 -94 -24 -257 10 -361 66 -204 229 -347
463 -405 126 -32 389 -32 514 -1 179 45 312 110 468 230 45 35 84 63 86 61 1
-2 9 -37 18 -78 8 -41 25 -101 37 -132 l21 -58 195 0 c107 0 194 2 194 5 0 3
-6 16 -14 28 -33 51 -75 204 -86 312 -5 61 -10 321 -10 580 -1 541 -11 804
-35 885 -90 300 -362 442 -835 439 -69 -1 -170 -7 -224 -15z m711 -1289 c-12
-272 -48 -378 -176 -506 -123 -123 -268 -184 -466 -196 -182 -11 -324 33 -403
122 -172 196 -85 472 173 551 28 8 156 33 285 55 241 40 451 87 530 118 25 10
49 16 54 13 5 -3 6 -70 3 -157z"/>
<path d="M52287 2290 c-335 -53 -600 -235 -736 -508 -89 -178 -125 -359 -125
-632 0 -273 36 -455 125 -632 89 -176 235 -321 414 -411 311 -155 742 -139
1044 40 258 154 404 387 456 730 23 146 23 437 2 559 -80 450 -354 749 -771
840 -84 19 -327 27 -409 14z m346 -324 c133 -42 287 -167 356 -288 74 -131
111 -304 111 -520 0 -315 -63 -512 -215 -664 -132 -133 -245 -179 -435 -179
-142 0 -229 25 -338 98 -209 140 -304 372 -303 742 0 357 89 580 286 721 123
87 224 116 385 109 58 -2 127 -11 153 -19z"/>
<path d="M54776 2285 c-197 -38 -377 -151 -493 -310 l-22 -30 -1 153 0 152
-170 0 -170 0 0 -1100 0 -1100 184 0 184 0 5 693 c3 466 9 711 16 752 19 95
59 204 97 260 107 162 372 259 586 214 119 -25 230 -103 281 -198 60 -109 60
-114 64 -953 l4 -768 185 0 185 0 -3 837 c-4 830 -4 839 -26 917 -56 200 -149
319 -313 400 -52 25 -130 56 -174 67 -107 28 -310 34 -419 14z"/>
<path d="M31767 2238 c18 -23 710 -1012 723 -1033 11 -19 -22 -69 -345 -525
-197 -278 -378 -533 -402 -567 l-45 -63 229 0 228 1 290 419 c160 231 293 419
297 417 4 -1 130 -189 281 -417 l274 -415 233 -3 c187 -2 231 0 223 10 -6 7
-183 261 -393 563 -211 303 -386 555 -391 560 -5 7 141 222 361 535 204 288
370 525 370 527 0 2 -100 3 -222 3 l-223 0 -265 -375 c-145 -206 -267 -375
-270 -375 -3 0 -25 33 -49 73 -25 39 -134 208 -244 375 l-199 302 -235 0
c-187 0 -233 -3 -226 -12z"/>
<path d="M50610 1150 l0 -1100 190 0 190 0 0 1100 0 1100 -190 0 -190 0 0
-1100z"/>
</g>
</svg>
