<?xml version="1.0" standalone="no"?>
<!DOCTYPE svg PUBLIC "-//W3C//DTD SVG 20010904//EN"
 "http://www.w3.org/TR/2001/REC-SVG-20010904/DTD/svg10.dtd">
<svg version="1.0" xmlns="http://www.w3.org/2000/svg"
 width="960.000000pt" height="712.000000pt" viewBox="0 0 960.000000 712.000000"
 preserveAspectRatio="xMidYMid meet">

<g transform="translate(0.000000,712.000000) scale(0.100000,-0.100000)"
fill="#000000" stroke="none">
<path d="M4539 6847 c-39 -21 -102 -92 -179 -205 l-15 -22 -107 35 c-117 38
-179 43 -236 20 -74 -32 -94 -61 -142 -210 -18 -55 -38 -103 -44 -107 -6 -4
-67 -8 -137 -8 -121 0 -126 -1 -172 -30 -32 -20 -54 -44 -72 -79 -23 -46 -25
-61 -25 -175 l0 -124 -97 -33 c-159 -52 -196 -77 -228 -151 -23 -57 -18 -108
21 -230 l36 -112 -23 -16 c-169 -112 -228 -181 -229 -268 0 -58 19 -99 95
-203 l66 -89 -69 -98 c-37 -53 -74 -110 -80 -125 -24 -57 -7 -151 36 -201 10
-10 59 -49 110 -87 50 -38 92 -70 92 -72 0 -2 -16 -52 -35 -111 -39 -121 -43
-173 -16 -231 30 -67 78 -100 205 -141 l115 -36 3 -138 c3 -136 4 -139 33
-182 17 -24 51 -54 75 -67 38 -22 60 -25 176 -29 l132 -5 33 -108 c36 -121 67
-167 131 -200 58 -30 124 -26 247 15 l104 34 76 -101 c87 -116 132 -147 213
-147 63 0 101 17 193 85 42 31 83 59 90 61 8 3 51 -21 97 -54 112 -82 134 -92
197 -92 91 0 132 27 218 145 l75 102 76 -25 c175 -57 226 -58 303 -7 49 32 71
71 108 191 l31 101 133 5 c151 5 196 21 242 88 37 53 45 92 45 217 l0 111 113
37 c132 43 171 70 203 139 32 68 30 94 -11 223 -19 59 -35 113 -35 118 1 6 46
43 101 83 85 62 104 80 125 125 42 92 29 148 -68 279 -30 40 -58 79 -62 86 -5
8 18 48 63 110 87 122 102 168 78 245 -20 62 -50 96 -158 173 -43 32 -79 62
-79 67 0 6 16 60 36 121 41 127 41 171 -1 242 -32 54 -73 79 -198 120 l-102
33 -5 133 c-5 125 -7 136 -34 178 -16 26 -45 57 -65 70 -33 23 -48 25 -176 30
l-140 5 -40 115 c-48 135 -58 152 -108 187 -60 42 -132 43 -254 3 -54 -17
-103 -33 -110 -35 -7 -2 -45 41 -84 95 -82 112 -136 150 -216 150 -59 0 -101
-19 -203 -94 l-87 -63 -89 65 c-49 35 -103 71 -121 78 -50 21 -123 18 -174 -9z
m178 -19 c57 -31 183 -121 180 -130 -1 -3 -55 -45 -120 -93 l-119 -86 -141 46
c-78 26 -144 48 -145 50 -2 2 28 47 68 100 54 74 81 101 113 115 56 26 113 25
164 -2z m597 -9 c19 -13 64 -65 100 -114 l66 -90 -145 -48 -145 -49 -120 88
c-66 48 -120 90 -120 94 0 10 154 118 192 136 48 21 130 13 172 -17z m-168
-311 c-6 -3 -58 -22 -116 -40 l-106 -35 -112 36 c-61 20 -113 39 -114 43 -2 5
49 45 112 91 l114 83 117 -85 c68 -50 112 -89 105 -93z m-923 129 c54 -18 99
-36 99 -40 -1 -4 -39 -62 -87 -128 l-86 -119 -150 0 c-91 0 -149 4 -149 10 0
30 66 210 87 239 31 40 94 71 148 70 22 0 84 -14 138 -32z m1624 12 c23 -11
52 -34 64 -50 27 -38 91 -231 81 -241 -5 -5 -73 -7 -153 -6 l-144 3 -87 120
c-48 66 -88 122 -88 125 0 12 197 68 239 69 27 1 62 -7 88 -20z m-1342 -102
l129 -43 -104 -77 -104 -77 -118 0 c-88 0 -118 3 -118 13 1 19 158 227 172
227 7 0 71 -20 143 -43z m1070 -63 c42 -58 79 -112 82 -120 4 -12 -16 -14
-114 -14 l-120 0 -101 73 c-56 39 -102 75 -102 78 0 7 237 87 262 88 10 1 45
-39 93 -105z m-795 -28 c59 -19 98 -37 90 -40 -117 -45 -212 -66 -297 -66 -51
0 -93 3 -93 8 0 9 171 132 185 132 5 0 57 -16 115 -34z m498 -27 c45 -34 82
-65 82 -70 0 -5 -42 -9 -93 -9 -87 0 -180 21 -287 66 -15 6 168 73 200 73 8 0
52 -27 98 -60z m-286 -41 c37 -12 68 -26 68 -30 0 -4 -61 -8 -135 -8 -75 0
-135 4 -135 9 0 7 80 38 129 50 3 1 35 -9 73 -21z m396 -128 c119 -39 222 -74
229 -78 52 -32 392 -286 396 -295 3 -7 62 -90 131 -185 l127 -173 74 -228 75
-228 0 -234 0 -234 -74 -226 -73 -226 -137 -189 -137 -189 -202 -147 c-111
-82 -206 -148 -211 -148 -6 0 -102 -30 -214 -66 l-204 -66 -249 1 c-202 0
-258 3 -296 16 -27 9 -124 41 -217 71 l-169 55 -192 139 -193 140 -142 196
c-78 108 -146 210 -150 227 -5 18 -36 115 -69 217 l-61 185 0 245 0 245 73
220 72 221 140 192 139 192 195 141 c179 129 203 143 286 169 49 16 151 48
225 72 l135 43 238 -2 238 -2 217 -71z m-1578 63 c0 -5 -20 -69 -43 -143 l-43
-135 -139 -47 c-77 -25 -144 -47 -148 -47 -5 -1 -7 57 -5 127 3 121 5 131 30
170 45 68 82 81 226 82 67 0 122 -3 122 -7z m311 -10 c-6 -10 -39 -56 -73
-102 l-63 -84 -115 -37 c-63 -20 -116 -36 -118 -34 -4 2 76 253 85 266 2 5 69
8 149 8 135 0 144 -1 135 -17z m264 8 c-58 -52 -167 -116 -242 -142 -48 -16
-93 -28 -100 -27 -7 2 17 42 53 91 l65 87 117 0 c66 0 112 -4 107 -9z m80 -37
c-71 -24 -134 -42 -139 -41 -5 2 17 22 50 45 58 41 61 42 139 41 l80 -1 -130
-44z m1007 4 c33 -23 56 -44 51 -45 -4 -2 -67 17 -138 41 l-130 44 78 1 c77 1
80 0 139 -41z m278 -44 c33 -47 59 -88 57 -91 -3 -2 -45 8 -93 23 -68 21 -109
41 -171 87 -46 33 -83 61 -83 63 0 2 51 4 114 4 l114 0 62 -86z m274 44 c31
-87 73 -223 70 -229 -2 -4 -57 11 -121 32 l-118 39 -65 92 c-36 50 -66 95 -68
100 -2 4 62 8 141 8 l145 0 16 -42z m290 22 c23 -11 55 -39 71 -63 29 -41 30
-47 34 -170 l3 -128 -26 7 c-14 3 -81 25 -148 47 l-123 42 -18 55 c-10 30 -31
94 -47 143 l-28 87 121 0 c101 0 127 -3 161 -20z m-2168 -159 c-6 -8 -190
-144 -225 -165 -13 -8 -13 -5 1 15 10 13 30 43 45 67 25 37 37 45 103 66 41
14 76 25 78 25 2 1 1 -3 -2 -8z m1741 -97 c24 -32 41 -60 38 -62 -4 -4 -211
144 -220 158 -3 4 28 -2 68 -15 67 -21 75 -27 114 -81z m-1987 -47 c-45 -61
-82 -98 -141 -141 -44 -32 -82 -56 -85 -54 -2 3 11 51 29 108 l34 104 94 32
c138 48 139 47 69 -49z m2107 52 l103 -32 29 -91 c17 -51 33 -99 37 -109 11
-29 -9 -19 -96 46 -60 45 -98 83 -137 140 -30 42 -51 77 -46 77 4 0 54 -14
110 -31z m-2300 -61 c-2 -7 -19 -60 -38 -117 l-33 -104 -71 -51 c-38 -29 -85
-62 -102 -75 l-33 -22 0 148 0 149 123 41 c131 44 162 50 154 31z m2579 -30
l134 -42 0 -143 c0 -96 -4 -143 -11 -143 -6 0 -52 30 -103 67 l-93 68 -37 110
c-38 117 -40 125 -30 125 4 0 67 -19 140 -42z m372 -125 c53 -25 102 -106 102
-167 0 -38 -66 -231 -79 -231 -7 0 -64 36 -126 80 l-114 80 0 156 -1 157 93
-30 c50 -16 107 -37 125 -45z m-3248 -82 l0 -150 -119 -85 c-66 -47 -123 -86
-128 -86 -13 0 -73 201 -73 244 0 43 28 101 65 136 24 23 198 88 238 89 15 1
17 -13 17 -148z m364 77 c-23 -40 -157 -218 -161 -214 -3 2 5 35 17 73 21 63
26 71 83 111 67 46 72 48 61 30z m2371 -39 c44 -33 53 -47 73 -105 12 -38 19
-70 17 -73 -3 -2 -6 -2 -8 0 -55 73 -157 219 -157 224 0 8 14 0 75 -46z
m-2530 -81 c-2 -7 -16 -51 -30 -98 -23 -75 -82 -173 -146 -244 -5 -6 -9 42 -9
110 l1 119 87 62 c90 64 104 72 97 51z m2715 -54 l90 -66 0 -109 c0 -60 -4
-109 -9 -109 -20 0 -117 149 -142 220 -30 87 -42 130 -34 130 3 0 46 -30 95
-66z m-2920 -213 l0 -117 -71 -97 c-39 -53 -74 -97 -78 -97 -7 0 -91 247 -91
266 1 12 223 172 233 167 4 -2 7 -57 7 -122z m3160 40 c58 -41 106 -76 108
-77 8 -5 -84 -274 -93 -274 -5 1 -40 43 -77 95 l-68 93 0 127 c0 98 3 125 13
119 6 -5 59 -42 117 -83z m-3092 -198 l-43 -128 -3 82 -3 81 43 57 c23 31 44
52 46 47 2 -6 -16 -68 -40 -139z m2900 87 c41 -57 42 -62 42 -137 0 -45 -4
-73 -9 -67 -7 7 -43 114 -82 242 -12 38 5 25 49 -38z m-3181 -131 c23 -74 43
-137 43 -142 0 -7 -150 -219 -170 -240 -9 -10 -114 128 -142 185 -46 94 -11
174 117 270 50 37 94 66 99 65 5 -2 29 -64 53 -138z m3611 69 c114 -82 150
-157 118 -245 -12 -34 -97 -163 -136 -206 -7 -8 -187 229 -184 242 6 22 85
265 90 272 7 11 9 10 112 -63z m-3398 -137 c0 -83 -5 -114 -31 -195 -17 -53
-35 -96 -38 -96 -13 0 -73 208 -65 222 20 35 120 167 127 168 4 0 7 -44 7 -99z
m3109 4 l63 -85 -32 -98 c-27 -81 -50 -132 -50 -111 0 3 -13 43 -30 89 -26 74
-30 99 -30 193 0 60 4 106 9 103 4 -3 36 -44 70 -91z m-3226 -231 l38 -116
-38 -114 c-20 -63 -40 -114 -44 -114 -13 0 -170 223 -165 235 7 19 159 225
166 225 3 0 23 -52 43 -116z m3395 0 l83 -116 -52 -71 c-29 -40 -66 -91 -83
-114 -16 -24 -33 -43 -37 -43 -4 0 -25 51 -45 114 l-38 114 38 116 c20 64 40
116 44 116 4 0 44 -52 90 -116z m-206 -77 c9 -36 8 -53 -7 -103 -10 -32 -22
-63 -27 -68 -4 -6 -8 55 -7 135 1 133 2 142 15 111 8 -17 19 -51 26 -75z
m-3072 -37 c0 -72 -4 -130 -9 -130 -5 0 -19 29 -30 65 l-21 65 22 65 c13 36
26 65 30 65 5 0 8 -58 8 -130z m-170 -273 c0 -6 -20 -70 -44 -142 -30 -91 -47
-130 -58 -129 -16 1 -153 101 -180 131 -25 27 -48 87 -48 123 0 46 22 91 91
185 l62 85 88 -120 c49 -66 89 -126 89 -133z m3612 161 c80 -113 97 -160 78
-220 -7 -24 -20 -54 -30 -69 -28 -38 -200 -162 -205 -147 -2 7 -24 73 -49 147
l-44 133 90 124 c50 68 92 124 93 124 1 0 31 -42 67 -92z m-3474 -36 c27 -83
32 -113 32 -195 0 -53 -4 -97 -8 -97 -7 0 -121 151 -130 172 -5 11 60 218 68
218 3 0 20 -44 38 -98z m3171 -16 l31 -100 -26 -35 c-14 -20 -42 -59 -62 -88
-20 -29 -40 -52 -44 -53 -5 0 -8 47 -8 105 0 93 4 117 31 196 18 50 35 86 39
82 5 -4 22 -53 39 -107z m-3210 -233 l71 -98 0 -122 c0 -68 -3 -123 -7 -123
-11 0 -227 160 -231 171 -5 12 81 269 89 269 3 0 38 -44 78 -97z m3301 -46
c23 -71 40 -130 39 -131 -27 -22 -230 -166 -234 -166 -3 0 -5 56 -5 125 l0
125 71 96 c39 53 74 92 79 88 4 -5 27 -67 50 -137z m-3156 -30 c21 -65 36
-120 33 -123 -2 -2 -23 20 -46 50 -40 54 -41 57 -41 133 0 42 4 73 8 68 5 -6
26 -63 46 -128z m2936 60 c0 -68 -2 -75 -41 -130 -22 -31 -44 -57 -49 -57 -5
0 -1 24 9 53 9 28 28 87 42 129 13 43 27 78 32 78 4 0 7 -33 7 -73z m-2918
-207 c52 -72 66 -102 108 -243 12 -37 3 -34 -99 40 l-80 58 -1 113 c0 61 3
112 8 111 4 0 33 -36 64 -79z m2918 -32 l-1 -113 -90 -63 c-50 -35 -92 -62
-95 -60 -2 3 9 47 26 99 23 72 43 112 87 172 32 42 61 77 65 77 4 0 8 -51 8
-112z m-3127 -38 l117 -85 0 -146 c0 -80 -3 -148 -6 -151 -12 -12 -216 65
-249 93 -41 36 -65 86 -65 134 0 32 50 211 66 237 8 12 5 14 137 -82z m3405
63 c26 -68 62 -190 62 -208 0 -46 -24 -102 -59 -136 -29 -29 -57 -43 -141 -69
-58 -18 -108 -34 -112 -37 -5 -2 -8 65 -8 150 l0 153 118 87 c64 47 120 87
123 87 4 0 11 -12 17 -27z m-2998 -268 c44 -60 78 -111 76 -113 -2 -2 -31 16
-64 40 -56 39 -62 48 -81 108 -21 65 -25 88 -16 78 3 -2 41 -54 85 -113z
m2518 40 c-20 -62 -27 -71 -81 -112 -33 -24 -62 -41 -64 -39 -3 2 14 30 36 60
23 31 59 81 82 112 22 30 43 54 45 52 2 -3 -6 -35 -18 -73z m-2672 -19 l90
-66 33 -102 c19 -57 36 -109 38 -115 8 -20 -9 -16 -148 28 l-129 41 0 145 c0
118 3 144 14 140 7 -3 53 -35 102 -71z m2874 -69 l0 -143 -135 -44 c-74 -24
-137 -41 -141 -37 -3 3 11 57 32 119 l39 112 94 68 c51 37 98 68 102 68 5 0 9
-64 9 -143z m-2661 -85 c56 -41 98 -83 140 -140 71 -95 70 -96 -68 -49 l-95
32 -33 100 c-33 102 -37 115 -28 115 3 0 40 -26 84 -58z m2419 46 c-3 -7 -19
-56 -37 -108 l-31 -96 -100 -33 c-55 -18 -105 -31 -109 -29 -5 2 16 38 47 81
40 55 81 96 137 137 81 60 101 70 93 48z m-2584 -181 l128 -43 44 -134 c24
-74 44 -138 44 -142 0 -5 -54 -8 -120 -8 -156 0 -199 19 -244 107 -12 24 -16
61 -16 153 0 111 1 121 18 116 9 -3 75 -25 146 -49z m2825 -75 c-4 -121 -6
-131 -32 -169 -15 -22 -45 -49 -67 -62 -35 -20 -50 -21 -163 -19 l-123 3 45
140 46 140 140 47 c77 25 144 47 149 47 4 1 6 -57 5 -127z m-2375 3 c104 -76
119 -88 94 -80 -139 43 -142 44 -186 107 -24 33 -37 58 -29 55 8 -3 63 -40
121 -82z m1866 53 c-12 -18 -29 -45 -38 -61 -13 -21 -35 -33 -96 -52 -43 -14
-80 -24 -81 -23 -4 4 218 166 228 167 5 1 -1 -14 -13 -31z m-2031 -73 l109
-35 63 -88 c34 -48 67 -93 72 -99 7 -10 -22 -13 -140 -13 l-149 0 -38 123
c-22 67 -41 128 -44 135 -6 18 8 15 127 -23z m2206 -7 c-44 -143 -68 -214 -74
-221 -4 -4 -72 -6 -150 -5 l-142 3 68 97 68 96 105 35 c142 47 141 47 125 -5z
m-1948 -77 c71 -23 110 -43 173 -89 l82 -61 -113 -3 c-96 -3 -115 -1 -129 14
-29 32 -121 168 -113 168 4 0 49 -13 100 -29z m1617 -61 l-66 -90 -116 0 c-66
0 -112 4 -106 9 54 50 167 117 236 141 126 43 127 42 52 -60z m-1291 -45 c65
-20 117 -38 115 -40 -2 -2 -35 -5 -74 -6 -69 -2 -72 -1 -127 41 -55 41 -70 57
-44 47 6 -2 65 -21 130 -42z m1067 41 c0 -2 -28 -24 -62 -48 -63 -43 -63 -43
-138 -39 l-75 4 130 43 c134 44 145 47 145 40z m-760 -141 c47 -15 89 -31 93
-35 5 -4 -39 -24 -97 -43 l-106 -35 -90 66 -90 67 92 5 c110 6 92 8 198 -25z
m590 17 c-1 -4 -40 -35 -88 -69 l-88 -61 -107 36 c-59 20 -104 39 -100 43 6 5
149 51 195 62 20 5 188 -5 188 -11z m-1120 -109 c47 -65 86 -120 88 -124 4 -9
-204 -71 -242 -71 -102 0 -153 48 -201 192 -19 57 -35 108 -35 112 0 4 69 8
153 8 l152 0 85 -117z m293 46 c53 -39 97 -72 97 -74 0 -2 -39 -15 -87 -30
-48 -15 -110 -36 -139 -45 l-52 -18 -81 112 c-45 62 -81 116 -81 120 0 3 55 6
123 6 l123 0 97 -71z m527 67 c0 -2 -32 -14 -70 -26 l-70 -22 -73 25 -72 25
143 1 c78 1 142 -1 142 -3z m600 -2 c0 -16 -164 -224 -177 -224 -23 0 -263 80
-262 88 0 4 41 37 92 74 l92 66 128 1 c70 1 127 -1 127 -5z m340 4 c-1 -29
-74 -219 -93 -243 -32 -41 -87 -67 -140 -67 -34 0 -231 54 -246 67 -1 2 36 58
84 124 l86 121 155 0 c85 0 154 -1 154 -2z m-853 -154 c1 -5 -49 -46 -111 -91
l-114 -81 -116 85 c-64 47 -115 88 -112 90 3 3 56 22 118 43 l113 37 109 -37
c61 -20 111 -41 113 -46z m-363 -96 c64 -46 116 -86 116 -89 0 -3 -44 -37 -97
-75 l-98 -69 -71 0 c-62 0 -75 3 -107 27 -33 26 -164 195 -156 202 12 10 276
94 286 91 6 -2 63 -41 127 -87z m554 44 l144 -47 -69 -95 c-82 -112 -122 -140
-201 -140 -29 0 -63 5 -75 11 -44 24 -188 132 -185 140 3 9 229 177 238 177 3
1 70 -20 148 -46z"/>
<path d="M3887 2169 c-125 -18 -250 -106 -292 -205 -39 -92 -26 -240 27 -319
52 -76 107 -108 300 -176 162 -57 203 -77 240 -116 36 -37 48 -73 48 -139 0
-131 -92 -222 -243 -240 -104 -12 -206 25 -276 102 l-44 47 -31 -17 c-17 -9
-42 -25 -56 -36 l-25 -19 49 -50 c95 -97 208 -136 371 -129 131 6 197 31 271
103 79 78 99 127 99 245 -1 112 -20 164 -81 224 -51 50 -103 75 -257 125 -196
63 -253 98 -283 176 -20 55 -16 143 11 199 71 148 357 168 471 33 l24 -28 44
31 c25 16 47 34 51 39 7 12 -79 87 -125 111 -73 37 -195 54 -293 39z"/>
<path d="M1527 2143 c-4 -3 -7 -285 -7 -625 l0 -618 239 0 c131 0 262 5 291
10 119 23 221 96 262 186 25 58 34 167 18 232 -25 106 -108 190 -210 214 l-51
12 44 16 c68 26 114 66 143 126 24 49 26 62 22 147 -3 72 -9 103 -28 141 -47
92 -133 140 -281 156 -106 11 -432 14 -442 3z m473 -114 c28 -6 69 -25 93 -43
100 -76 102 -246 4 -321 -60 -45 -113 -55 -294 -55 l-163 0 0 215 0 215 155 0
c84 0 177 -5 205 -11z m38 -544 c67 -20 130 -69 159 -124 30 -58 32 -164 4
-219 -57 -111 -146 -141 -423 -142 l-138 0 0 250 0 250 173 0 c126 0 187 -4
225 -15z"/>
<path d="M2843 1716 c-97 -32 -198 -117 -238 -203 -63 -133 -58 -321 12 -440
37 -64 130 -145 194 -168 81 -30 262 -28 343 4 56 22 166 113 166 137 0 5 -16
22 -36 38 l-36 28 -46 -46 c-62 -62 -134 -90 -232 -90 -56 0 -88 6 -128 24
-94 41 -172 153 -172 247 l0 33 340 0 340 0 0 53 c0 113 -53 242 -125 304 -77
67 -129 86 -240 90 -66 2 -114 -2 -142 -11z m245 -108 c48 -22 106 -77 128
-120 8 -15 17 -48 21 -73 l6 -45 -287 0 c-319 0 -297 -6 -274 72 12 42 70 114
121 150 71 51 198 58 285 16z"/>
<path d="M4803 1716 c-138 -45 -243 -164 -274 -308 -16 -71 -6 -201 19 -272
38 -104 125 -194 227 -232 77 -29 259 -26 339 5 56 22 166 113 166 137 0 5
-16 22 -35 37 l-36 28 -55 -50 c-194 -178 -500 -70 -526 184 l-3 30 343 3 342
2 0 44 c0 164 -80 305 -212 372 -45 23 -68 28 -153 31 -66 2 -114 -2 -142 -11z
m243 -107 c49 -23 108 -78 129 -119 9 -16 18 -50 22 -75 l6 -45 -287 0 -286 0
0 25 c0 54 63 144 143 205 56 42 195 47 273 9z"/>
<path d="M5799 1717 c-175 -50 -299 -218 -299 -406 0 -237 156 -413 380 -428
109 -8 188 10 261 60 50 33 90 74 77 80 -2 1 -18 15 -35 31 l-32 29 -39 -35
c-175 -158 -459 -51 -502 189 -28 158 49 315 184 374 38 17 70 23 126 23 82 0
115 -12 186 -70 l41 -33 36 26 c21 14 37 32 37 39 0 17 -78 76 -138 106 -57
27 -210 35 -283 15z"/>
<path d="M7620 1709 c-25 -11 -69 -45 -97 -76 l-53 -57 0 67 0 67 -56 0 -56 0
6 -31 c3 -17 6 -200 6 -405 l0 -374 55 0 55 0 0 253 c0 140 5 268 10 289 30
108 118 177 232 183 l63 4 3 50 3 51 -63 0 c-42 0 -78 -7 -108 -21z"/>
<path d="M8225 1724 c-128 -32 -241 -134 -286 -260 -30 -82 -31 -235 -1 -316
36 -98 106 -184 185 -224 112 -59 300 -58 417 1 41 20 130 104 130 122 0 6
-16 24 -35 38 l-34 27 -31 -36 c-41 -46 -140 -94 -210 -102 -107 -12 -221 36
-280 118 -31 42 -60 123 -60 165 l0 23 341 0 342 0 -5 89 c-4 66 -12 103 -31
144 -34 74 -106 150 -175 184 -48 23 -71 28 -152 30 -52 1 -104 0 -115 -3z
m216 -115 c86 -43 144 -120 151 -199 l3 -35 -289 -3 -289 -2 6 27 c23 113 117
210 227 234 52 11 148 0 191 -22z"/>
<path d="M6380 1458 c0 -139 5 -284 10 -321 26 -179 132 -264 319 -256 98 5
180 43 226 106 16 23 33 42 38 42 4 1 7 -28 7 -64 l0 -65 56 0 57 0 -7 77 c-3
42 -6 224 -6 405 l0 328 -54 0 -55 0 -3 -262 c-3 -252 -4 -265 -27 -315 -70
-156 -281 -215 -387 -109 -57 57 -64 104 -64 413 l0 273 -55 0 -55 0 0 -252z"/>
</g>
</svg>
